HIERARCHY
ROOT Hips
{
    OFFSET   0.000000   0.000000   0.000000
    CHANNELS 6 Xposition Yposition Zposition Zrotation Xrotation Yrotation
    JOINT Chest
    {
        OFFSET   0.000000   8.007230   0.000000
        CHANNELS 3 Zrotation Xrotation Yrotation
        JOINT Chest2
        {
            OFFSET   0.000000  22.077100   0.000000
            CHANNELS 3 Zrotation Xrotation Yrotation
            JOINT Neck
            {
                OFFSET   0.000000  23.254700   0.000000
                CHANNELS 3 Zrotation Xrotation Yrotation
                JOINT Head
                {
                    OFFSET   0.000010  14.370000   1.956610
                    CHANNELS 3 Zrotation Xrotation Yrotation
                    End Site
                    {
                        OFFSET   0.000000  19.566000   0.000000
                    }
                }
            }
            JOINT LeftCollar
            {
                OFFSET   3.911900  19.017000  -0.467063
                CHANNELS 3 Zrotation Xrotation Yrotation
                JOINT LeftShoulder
                {
                    OFFSET  10.383700   0.000000   0.000000
                    CHANNELS 3 Zrotation Xrotation Yrotation
                    JOINT LeftElbow
                    {
                        OFFSET  26.662100   0.001671   0.000522
                        CHANNELS 3 Zrotation Xrotation Yrotation
                        JOINT LeftWrist
                        {
                            OFFSET  28.869000   0.000037  -0.000114
                            CHANNELS 3 Zrotation Xrotation Yrotation
                            JOINT LeftFinger0
                            {
                                OFFSET   2.044650  -2.323450   3.252850
                                CHANNELS 3 Zrotation Xrotation Yrotation
                                JOINT LeftFinger01
                                {
                                    OFFSET   3.088140   0.000000   0.000000
                                    CHANNELS 3 Zrotation Xrotation Yrotation
                                    JOINT LeftFinger02
                                    {
                                        OFFSET   2.639460   0.000000   0.000000
                                        CHANNELS 3 Zrotation Xrotation Yrotation
                                        End Site
                                        {
                                            OFFSET   2.582190   0.000000   0.000000
                                        }
                                    }
                                }
                            }
                            JOINT LeftFinger1
                            {
                                OFFSET   8.364480   0.000000   3.252850
                                CHANNELS 3 Zrotation Xrotation Yrotation
                                JOINT LeftFinger11
                                {
                                    OFFSET   4.646930   0.000000   0.000000
                                    CHANNELS 3 Zrotation Xrotation Yrotation
                                    JOINT LeftFinger12
                                    {
                                        OFFSET   2.323470   0.000000   0.000000
                                        CHANNELS 3 Zrotation Xrotation Yrotation
                                        End Site
                                        {
                                            OFFSET   2.273050   0.000000   0.000000
                                        }
                                    }
                                }
                            }
                            JOINT LeftFinger2
                            {
                                OFFSET   8.364490   0.000016   1.078090
                                CHANNELS 3 Zrotation Xrotation Yrotation
                                JOINT LeftFinger21
                                {
                                    OFFSET   5.111620   0.000000   0.000000
                                    CHANNELS 3 Zrotation Xrotation Yrotation
                                    JOINT LeftFinger22
                                    {
                                        OFFSET   2.788150   0.000013   0.000000
                                        CHANNELS 3 Zrotation Xrotation Yrotation
                                        End Site
                                        {
                                            OFFSET   2.727660   0.000000   0.000000
                                        }
                                    }
                                }
                            }
                            JOINT LeftFinger3
                            {
                                OFFSET   7.899780   0.000016  -1.078090
                                CHANNELS 3 Zrotation Xrotation Yrotation
                                JOINT LeftFinger31
                                {
                                    OFFSET   4.646930   0.000000   0.000000
                                    CHANNELS 3 Zrotation Xrotation Yrotation
                                    JOINT LeftFinger32
                                    {
                                        OFFSET   2.323470   0.000000   0.000000
                                        CHANNELS 3 Zrotation Xrotation Yrotation
                                        End Site
                                        {
                                            OFFSET   2.273050   0.000000   0.000000
                                        }
                                    }
                                }
                            }
                            JOINT LeftFinger4
                            {
                                OFFSET   7.435080   0.000000  -3.252850
                                CHANNELS 3 Zrotation Xrotation Yrotation
                                JOINT LeftFinger41
                                {
                                    OFFSET   3.717550   0.000000   0.000000
                                    CHANNELS 3 Zrotation Xrotation Yrotation
                                    JOINT LeftFinger42
                                    {
                                        OFFSET   1.858760   0.000000   0.000000
                                        CHANNELS 3 Zrotation Xrotation Yrotation
                                        End Site
                                        {
                                            OFFSET   1.818440   0.000000   0.000000
                                        }
                                    }
                                }
                            }
                        }
                    }
                }
            }
            JOINT RightCollar
            {
                OFFSET  -3.911900  19.017000  -0.467064
                CHANNELS 3 Zrotation Xrotation Yrotation
                JOINT RightShoulder
                {
                    OFFSET -10.383700   0.000000   0.000000
                    CHANNELS 3 Zrotation Xrotation Yrotation
                    JOINT RightElbow
                    {
                        OFFSET -26.662100   0.001633   0.000260
                        CHANNELS 3 Zrotation Xrotation Yrotation
                        JOINT RightWrist
                        {
                            OFFSET -28.869000  -0.000045  -0.000080
                            CHANNELS 3 Zrotation Xrotation Yrotation
                            JOINT RightFinger0
                            {
                                OFFSET  -2.044660  -2.323490   3.252850
                                CHANNELS 3 Zrotation Xrotation Yrotation
                                JOINT RightFinger01
                                {
                                    OFFSET  -3.088140   0.000000   0.000000
                                    CHANNELS 3 Zrotation Xrotation Yrotation
                                    JOINT RightFinger02
                                    {
                                        OFFSET  -2.639450   0.000000   0.000000
                                        CHANNELS 3 Zrotation Xrotation Yrotation
                                        End Site
                                        {
                                            OFFSET  -2.582190   0.000000   0.000000
                                        }
                                    }
                                }
                            }
                            JOINT RightFinger1
                            {
                                OFFSET  -8.364480   0.000000   3.252850
                                CHANNELS 3 Zrotation Xrotation Yrotation
                                JOINT RightFinger11
                                {
                                    OFFSET  -4.646920   0.000000   0.000000
                                    CHANNELS 3 Zrotation Xrotation Yrotation
                                    JOINT RightFinger12
                                    {
                                        OFFSET  -2.323470   0.000000   0.000000
                                        CHANNELS 3 Zrotation Xrotation Yrotation
                                        End Site
                                        {
                                            OFFSET  -2.273050   0.000000   0.000000
                                        }
                                    }
                                }
                            }
                            JOINT RightFinger2
                            {
                                OFFSET  -8.364480   0.000000   1.078090
                                CHANNELS 3 Zrotation Xrotation Yrotation
                                JOINT RightFinger21
                                {
                                    OFFSET  -5.111610   0.000000   0.000000
                                    CHANNELS 3 Zrotation Xrotation Yrotation
                                    JOINT RightFinger22
                                    {
                                        OFFSET  -2.788160   0.000000   0.000000
                                        CHANNELS 3 Zrotation Xrotation Yrotation
                                        End Site
                                        {
                                            OFFSET  -2.727660   0.000000   0.000000
                                        }
                                    }
                                }
                            }
                            JOINT RightFinger3
                            {
                                OFFSET  -7.899780   0.000000  -1.078090
                                CHANNELS 3 Zrotation Xrotation Yrotation
                                JOINT RightFinger31
                                {
                                    OFFSET  -4.646930   0.000000   0.000000
                                    CHANNELS 3 Zrotation Xrotation Yrotation
                                    JOINT RightFinger32
                                    {
                                        OFFSET  -2.323470   0.000000   0.000000
                                        CHANNELS 3 Zrotation Xrotation Yrotation
                                        End Site
                                        {
                                            OFFSET  -2.273050   0.000000   0.000000
                                        }
                                    }
                                }
                            }
                            JOINT RightFinger4
                            {
                                OFFSET  -7.435090   0.000000  -3.252850
                                CHANNELS 3 Zrotation Xrotation Yrotation
                                JOINT RightFinger41
                                {
                                    OFFSET  -3.717550   0.000000   0.000000
                                    CHANNELS 3 Zrotation Xrotation Yrotation
                                    JOINT RightFinger42
                                    {
                                        OFFSET  -1.858760   0.000000   0.000000
                                        CHANNELS 3 Zrotation Xrotation Yrotation
                                        End Site
                                        {
                                            OFFSET  -1.818440   0.000000   0.000000
                                        }
                                    }
                                }
                            }
                        }
                    }
                }
            }
        }
    }
    JOINT LeftHip
    {
        OFFSET   9.782990   0.000000   0.000000
        CHANNELS 3 Zrotation Xrotation Yrotation
        JOINT LeftKnee
        {
            OFFSET  -0.000063 -41.789100   0.001657
            CHANNELS 3 Zrotation Xrotation Yrotation
            JOINT LeftAnkle
            {
                OFFSET   0.000078 -41.133200  -0.000113
                CHANNELS 3 Zrotation Xrotation Yrotation
                JOINT LeftToe
                {
                    OFFSET   0.000000  -6.358970  14.674500
                    CHANNELS 3 Zrotation Xrotation Yrotation
                    End Site
                    {
                        OFFSET   0.000000   0.000000   3.913200
                    }
                }
            }
        }
    }
    JOINT RightHip
    {
        OFFSET  -9.782990   0.000000   0.000000
        CHANNELS 3 Zrotation Xrotation Yrotation
        JOINT RightKnee
        {
            OFFSET   0.000053 -41.789200   0.000277
            CHANNELS 3 Zrotation Xrotation Yrotation
            JOINT RightAnkle
            {
                OFFSET   0.000030 -41.133200  -0.000150
                CHANNELS 3 Zrotation Xrotation Yrotation
                JOINT RightToe
                {
                    OFFSET   0.000000  -6.358960  14.674500
                    CHANNELS 3 Zrotation Xrotation Yrotation
                    End Site
                    {
                        OFFSET   0.000000   0.000000   3.913200
                    }
                }
            }
        }
    }
}
MOTION
Frames: 4
Frame Time:   0.016667
 -0.520126  89.596200  -0.773741  -2.379730  -9.179530  -2.047420   1.250610   4.859270  -0.509844   2.558590   9.705950  -1.132580  -0.587309  -0.308022  -0.007012  -0.965022  -0.624336   0.790668  -8.100220  -1.737070   0.407715 -60.269800  14.038800 -28.427400  42.068200  -6.073970 -71.975100  59.100500  22.243700 -38.622200  44.858300  59.775300 -89.842900 -61.565900  -0.901770   1.581000 -34.346800  -1.117790   0.465040  10.296100  -0.703170  -5.016500  -0.000000  -0.002571  -0.001028   0.000000  -0.001811   0.000122 -88.162900  -0.074861   0.025990 -88.091800  -0.440364  -0.233160 -66.154300   0.052691  -0.368855 -78.572200  -5.006770   1.328420 -78.500500  -0.330568  -0.048186 -58.875400  -0.090884  -0.236457 -72.664900  -9.490070   2.626970 -109.680000   0.445733   0.241780 -72.833100  -0.054766   0.327076  11.956600   2.453940  12.755300  45.880600   6.631210  30.577100 -49.336900  -8.733640  53.334700 -56.855700  16.892400  40.972100 -32.275700  52.615200  75.036200  68.377200  -0.015223  -0.053363  38.862700  -0.023481  -0.012775 -14.016300  -3.320790  13.784600   0.000000  -0.004804   0.001982   0.000000  -0.003325   0.001430  89.001300  -0.003857   0.006627 102.857000  -0.030134   0.012316  77.105500   0.006915   0.032118  88.995700  -4.999250  -0.093431  97.763700  -0.009958   0.003276  73.322800   0.007297   0.006495  88.984600  -9.998460  -0.176299 110.000000   0.000000   0.001334  80.000000  -0.000069   0.004205   1.972710  10.911700   2.873890   0.861362   0.090770   5.751990  -1.287560  -2.815860   2.815440   0.000000   0.000000   0.000000   3.029400   9.329910  -0.370616  -0.157446   2.462780  -5.897690  -1.317330  -3.981890  -0.876551  -0.000000   0.000000  -0.000000
 -0.525474  89.588400  -0.755221  -2.386530  -9.180050  -2.053290   1.242820   4.863110  -0.505724   2.542630   9.713830  -1.123720  -0.569971  -0.302206  -0.006952  -0.936579  -0.612829   0.759596  -8.128010  -1.747660   0.437861 -61.310400  13.236500 -28.317000  40.329700  -5.773730 -72.771900  57.882900  20.150500 -31.382000  32.938300  55.712000 -75.790500 -69.374200  -0.656587   0.917042 -39.544500  -0.725621   0.200874   8.631540  -0.224251  -3.355990  -0.000000  -0.002460  -0.000993   0.000000  -0.001747   0.000153 -89.406200  -0.140177  -0.005176 -92.052400  -0.473112  -0.291951 -69.123200   0.098090  -0.406251 -81.169500  -5.049110   1.090170 -81.089200  -0.336102  -0.066902 -60.816800  -0.074461  -0.244828 -69.821000  -9.349690   3.290240 -105.334000   0.170485   0.122111 -70.034800  -0.041326   0.128353  12.001300   2.373980  12.753600  47.066100   5.474520  30.603700 -48.475100  -8.444550  54.177300 -56.959300  16.663400  37.331200 -30.872600  52.363000  73.451100  70.462900   0.011193  -0.031564  40.268300   0.014611   0.006617 -13.698300  -2.112280   9.220720   0.000000  -0.004757   0.001965   0.000000  -0.003290   0.001416  89.001300  -0.003895   0.006662 103.107000  -0.053725   0.025727  77.306000   0.012484   0.048961  88.995700  -4.999250  -0.093518  97.530800  -0.025613   0.009209  73.148100   0.008635   0.020379  88.984600  -9.998450  -0.176312 110.000000   0.000000   0.001365  80.000000   0.000000   0.004254   1.970830  10.934700   2.883730   0.864618   0.086824   5.735070  -1.280820  -2.822170   2.827330  -0.000000   0.000000  -0.000000   3.044460   9.331600  -0.383912  -0.156093   2.477430  -5.862970  -1.332460  -3.997830  -0.896929   0.000000   0.000000  -0.000000
 -0.528577  89.585400  -0.733564  -2.388330  -9.172080  -2.052680   1.235690   4.865110  -0.501642   2.527870   9.718050  -1.114960  -0.553501  -0.303072  -0.006869  -0.909482  -0.614521   0.713563  -8.179510  -1.760720   0.420924 -62.841300  11.796100 -28.006700  38.535900  -5.354100 -74.245600  56.681700  16.857800 -24.172100  32.982300  55.673100 -75.838000 -68.639400  -0.302537   0.318116 -39.010000  -0.288632   0.041108   6.855700  -0.274477  -5.217120  -0.000000  -0.002359  -0.000947   0.000000  -0.001669   0.000152 -89.168200   0.582477  -0.011637 -97.506500  -0.351471  -0.247405 -72.959400   0.092600  -0.290041 -84.306400  -5.041390   0.685527 -84.569800  -0.184039  -0.044893 -63.427300  -0.029456  -0.137278 -69.939800  -9.358460   3.380400 -104.793000  -0.091810  -0.001752 -70.150700  -0.037251  -0.032596  12.065200   2.283730  12.731400  48.420800   4.268150  30.607300 -47.503200  -8.272920  55.245500 -56.941900  16.096500  32.464700 -31.114100  52.403000  73.744600  70.175400   0.025846  -0.059349  40.076900   0.034737   0.015622 -12.435600  -1.131510   5.504850   0.000000  -0.004701   0.001935   0.000000  -0.003250   0.001397  88.996500   0.138013   0.006693 103.646000  -0.085546   0.045394  77.996600   0.012224   0.045875  88.995700  -5.006690  -0.093622  97.653200  -0.031627   0.011808  73.178700   0.010018   0.040149  88.984600  -9.998450  -0.176317 110.000000   0.000000   0.001417  80.000000   0.000105   0.004336   1.972160  10.981600   2.891550   0.862682   0.021351   5.726740  -1.274740  -2.809110   2.825790   0.000000   0.000000  -0.000000   3.050990   9.334940  -0.390649  -0.155288   2.479820  -5.839810  -1.343260  -4.013230  -0.912618  -0.000000   0.000000   0.000000
 -0.529729  89.583600  -0.710058  -2.388910  -9.154120  -2.051640   1.229910   4.865400  -0.496839   2.515960   9.718750  -1.104800  -0.538425  -0.307126  -0.006783  -0.884689  -0.622628   0.655630  -8.244600  -1.777150   0.378666 -64.302300  10.603600 -27.680600  36.358300  -5.367450 -75.365900  55.509900  12.997000 -17.781100  33.158100  55.695800 -76.010200 -66.130000  -0.068326  -0.028221 -37.351300  -0.017478  -0.033875   5.013490  -0.324113  -7.078260  -0.000000  -0.002256  -0.000897   0.000000  -0.001589   0.000152 -88.930200   1.305130  -0.012562 -102.962000  -0.173336  -0.169027 -76.610400   0.073792  -0.120970 -87.160900  -5.026670   0.293025 -87.992300  -0.031976  -0.022885 -65.994300   0.005397  -0.029727 -70.670000  -9.399930   3.393670 -104.716000  -0.246595  -0.076911 -70.872700  -0.036669  -0.121612  12.135900   2.192690  12.696400  49.544200   3.533040  30.649000 -46.557900  -8.430020  55.982900 -56.697500  15.253200  27.063600 -31.602200  52.332500  74.264300  69.263100   0.032994  -0.087134  39.469300   0.045310   0.021204 -10.819100  -0.360415   2.352420   0.000000  -0.004641   0.001903   0.000000  -0.003208   0.001377  88.989100   0.279921   0.006709 104.587000  -0.105633   0.058266  78.815700   0.010409   0.036147  88.995600  -5.014120  -0.093725  98.123400  -0.048813   0.019728  73.393000   0.010786   0.053162  88.984600  -9.998460  -0.176319 110.000000   0.000000   0.001470  80.000000   0.000216   0.004419   1.978260  11.013900   2.897610   0.855387  -0.041040   5.720990  -1.270380  -2.796050   2.824240   0.000000   0.000000  -0.000000   3.053010   9.337980  -0.392918  -0.150707   2.480200  -5.829550  -1.351060  -4.027650  -0.926996   0.000000   0.000000   0.000000
